<svg width="44" height="44" viewBox="0 0 44 44" fill="none" xmlns="http://www.w3.org/2000/svg">
<path d="M5.5 5.5H12.8333V12.8333H5.5V5.5ZM18.3333 5.5H25.6667V12.8333H18.3333V5.5Z" fill="black"/>
<path d="M18.3333 5.5H25.6667V12.8333H18.3333V5.5ZM31.1667 5.5H38.5V12.8333H31.1667V5.5ZM5.5 31.1667H12.8333V38.5H5.5V31.1667ZM18.3333 31.1667H25.6667V38.5H18.3333V31.1667Z" fill="black"/>
<path d="M18.3333 31.1667H25.6667V38.5H18.3333V31.1667ZM31.1667 31.1667H38.5V38.5H31.1667V31.1667ZM5.5 18.3334H12.8333V25.6667H5.5V18.3334ZM18.3333 18.3334H25.6667V25.6667H18.3333V18.3334Z" fill="black"/>
<path d="M18.3333 18.3334H25.6667V25.6667H18.3333V18.3334ZM31.1667 18.3334H38.5V25.6667H31.1667V18.3334Z" fill="black"/>
</svg>
