<svg width="24" height="24" viewBox="0 0 24 24" fill="none" xmlns="http://www.w3.org/2000/svg">
<path d="M19.07 4.93C18.1595 4.01632 17.0793 3.28936 15.89 2.79C14.6596 2.26807 13.3366 1.99939 12 2C11.45 2 11 2.45 11 3V8H13V4.06C13.73 4.15 14.44 4.34 15.11 4.63C16.06 5.03 16.92 5.61 17.65 6.35C18.38 7.08 18.96 7.94 19.36 8.89C19.78 9.88 19.99 10.92 19.99 12C19.99 13.08 19.78 14.13 19.36 15.11C18.96 16.06 18.38 16.92 17.65 17.65C16.92 18.38 16.06 18.96 15.11 19.37C13.14 20.2 10.85 20.2 8.88 19.37C7.93 18.97 7.07 18.39 6.34 17.65C5.61178 16.9213 5.03114 16.0589 4.63 15.11C4.21 14.12 4 13.08 4 12C4 10.92 4.21 9.87 4.63 8.89C5.03 7.94 5.61 7.08 6.34 6.35L4.93 4.93C4.01 5.85 3.29 6.92 2.79 8.11C2.27 9.34 2 10.65 2 12C2 13.35 2.26 14.66 2.79 15.89C3.29 17.08 4.02 18.15 4.93 19.07C5.85 19.99 6.92 20.71 8.11 21.21C9.34 21.73 10.65 22 12 22C13.35 22 14.66 21.74 15.89 21.21C17.08 20.71 18.15 19.99 19.07 19.07C19.99 18.15 20.71 17.08 21.21 15.89C21.73 14.66 22 13.35 22 12C22 10.65 21.74 9.34 21.21 8.11C20.71 6.92 19.98 5.85 19.07 4.93Z" fill="black"/>
<path d="M12.88 11.12L8 8L11.12 12.88C12.34 14.56 14.57 12.33 12.89 11.11L12.88 11.12Z" fill="black"/>
</svg>
