<svg width="44" height="44" viewBox="0 0 44 44" fill="none" xmlns="http://www.w3.org/2000/svg">
<path d="M30.25 12.7188C29.8776 12.7188 29.5553 12.5827 29.2832 12.3105C29.0111 12.0384 28.875 11.7161 28.875 11.3438C28.875 10.6133 29.0111 9.91146 29.2832 9.23828C29.5553 8.5651 29.9564 7.9707 30.4863 7.45508L32.1836 5.73633C32.7279 5.19206 33 4.54036 33 3.78125C33 3.40885 33.1361 3.08659 33.4082 2.81445C33.6803 2.54232 34.0026 2.40625 34.375 2.40625C34.7474 2.40625 35.0697 2.54232 35.3418 2.81445C35.6139 3.08659 35.75 3.40885 35.75 3.78125C35.75 4.51172 35.6139 5.21354 35.3418 5.88672C35.0697 6.5599 34.6686 7.1543 34.1387 7.66992L32.4414 9.38867C31.8971 9.93294 31.625 10.5846 31.625 11.3438C31.625 11.7161 31.4889 12.0384 31.2168 12.3105C30.9447 12.5827 30.6224 12.7188 30.25 12.7188ZM22 12.7188C21.6276 12.7188 21.3053 12.5827 21.0332 12.3105C20.7611 12.0384 20.625 11.7161 20.625 11.3438C20.625 10.6133 20.7611 9.91146 21.0332 9.23828C21.3053 8.5651 21.7064 7.9707 22.2363 7.45508L23.9336 5.73633C24.4779 5.19206 24.75 4.54036 24.75 3.78125C24.75 3.40885 24.8861 3.08659 25.1582 2.81445C25.4303 2.54232 25.7526 2.40625 26.125 2.40625C26.4974 2.40625 26.8197 2.54232 27.0918 2.81445C27.3639 3.08659 27.5 3.40885 27.5 3.78125C27.5 4.51172 27.3639 5.21354 27.0918 5.88672C26.8197 6.5599 26.4186 7.1543 25.8887 7.66992L24.1914 9.38867C23.6471 9.93294 23.375 10.5846 23.375 11.3438C23.375 11.7161 23.2389 12.0384 22.9668 12.3105C22.6947 12.5827 22.3724 12.7188 22 12.7188ZM39.875 16.5C40.4479 16.5 40.985 16.6074 41.4863 16.8223C41.9876 17.0371 42.4245 17.3307 42.7969 17.7031C43.1693 18.0755 43.4629 18.5124 43.6777 19.0137C43.8926 19.515 44 20.0521 44 20.625V28.875C44 29.4479 43.8926 29.985 43.6777 30.4863C43.4629 30.9876 43.1693 31.4245 42.7969 31.7969C42.4245 32.1693 41.9876 32.4629 41.4863 32.6777C40.985 32.8926 40.4479 33 39.875 33H38.6504C38.6217 33.1003 38.6003 33.1934 38.5859 33.2793C38.5716 33.3652 38.543 33.4512 38.5 33.5371V34.375C38.5 35.3203 38.321 36.2083 37.9629 37.0391C37.6048 37.8698 37.1107 38.6003 36.4805 39.2305C35.8503 39.8607 35.1198 40.3548 34.2891 40.7129C33.4583 41.071 32.5703 41.25 31.625 41.25H23.375C22.2578 41.25 21.2266 40.9993 20.2812 40.498C19.3359 39.9967 18.5482 39.3307 17.918 38.5H7.17578C6.23047 38.5 5.34245 38.321 4.51172 37.9629C3.68099 37.6048 2.95052 37.1178 2.32031 36.502C1.6901 35.8861 1.19596 35.1556 0.837891 34.3105C0.479818 33.4655 0.300781 32.5703 0.300781 31.625V30.25H5.80078C5.80078 29.1185 6.01562 28.0514 6.44531 27.0488C6.875 26.0462 7.4694 25.1725 8.22852 24.4277C8.98763 23.6829 9.86133 23.0885 10.8496 22.6445C11.8379 22.2005 12.9049 21.9857 14.0508 22C14.4805 22 14.8958 22.0358 15.2969 22.1074C15.6979 22.179 16.099 22.2793 16.5 22.4082V13.75H38.5V16.5H39.875ZM14.0508 24.75C13.2917 24.75 12.5827 24.8932 11.9238 25.1797C11.265 25.4661 10.6777 25.86 10.1621 26.3613C9.64648 26.8626 9.2526 27.4427 8.98047 28.1016C8.70833 28.7604 8.5651 29.4766 8.55078 30.25H16.5V25.3516C16.1276 25.1654 15.7409 25.0221 15.3398 24.9219C14.9388 24.8216 14.5091 24.7643 14.0508 24.75ZM7.17578 35.75H16.6504C16.5501 35.3346 16.5 34.8763 16.5 34.375V33H3.28711C3.43034 33.401 3.63086 33.7663 3.88867 34.0957C4.14648 34.4251 4.4401 34.7188 4.76953 34.9766C5.09896 35.2344 5.47135 35.4206 5.88672 35.5352C6.30208 35.6497 6.73177 35.7214 7.17578 35.75ZM17.123 37.1895V37.2109L17.1445 37.2539V37.2324L17.123 37.1895ZM35.75 34.375V16.5H19.25V34.375C19.25 34.9479 19.3574 35.485 19.5723 35.9863C19.7871 36.4876 20.0807 36.9245 20.4531 37.2969C20.8255 37.6693 21.2624 37.9629 21.7637 38.1777C22.265 38.3926 22.8021 38.5 23.375 38.5H31.625C32.1979 38.5 32.735 38.3926 33.2363 38.1777C33.7376 37.9629 34.1745 37.6693 34.5469 37.2969C34.9193 36.9245 35.2129 36.4876 35.4277 35.9863C35.6426 35.485 35.75 34.9479 35.75 34.375ZM41.25 28.875V20.625C41.25 20.2526 41.1139 19.9303 40.8418 19.6582C40.5697 19.3861 40.2474 19.25 39.875 19.25H38.5V30.25H39.875C40.2474 30.25 40.5697 30.1139 40.8418 29.8418C41.1139 29.5697 41.25 29.2474 41.25 28.875Z" fill="black"/>
</svg>
