<svg width="16" height="18" viewBox="0 0 16 18" fill="none" xmlns="http://www.w3.org/2000/svg">
<path d="M0.73 18C0.524 18 0.350667 17.9233 0.21 17.77C0.07 17.6167 0 17.4367 0 17.23V12.462C0 12.0147 0.157333 11.6333 0.472 11.318C0.786667 11.0027 1.16767 10.8453 1.615 10.846H2V6.692C2 6.24533 2.15733 5.86433 2.472 5.549C2.78667 5.23433 3.16767 5.077 3.615 5.077H7.5V3.588C7.21333 3.40133 6.975 3.18867 6.785 2.95C6.595 2.71133 6.5 2.43067 6.5 2.108C6.5 1.90933 6.53733 1.721 6.612 1.543C6.68667 1.365 6.798 1.20167 6.946 1.053L8 0L9.054 1.054C9.20267 1.20267 9.31433 1.366 9.389 1.544C9.46367 1.722 9.50067 1.91 9.5 2.108C9.5 2.43067 9.405 2.71133 9.215 2.95C9.02567 3.18867 8.78733 3.40133 8.5 3.588V5.077H12.385C12.8317 5.077 13.2127 5.23433 13.528 5.549C13.8427 5.86367 14 6.24467 14 6.692V10.846H14.385C14.8317 10.846 15.2127 11.0033 15.528 11.318C15.8427 11.6333 16 12.0147 16 12.462V17.231C16 17.4377 15.9233 17.6177 15.77 17.771C15.6167 17.9243 15.4367 18.0007 15.23 18H0.73ZM3 10.846H13V6.692C13 6.51267 12.9423 6.36533 12.827 6.25C12.7117 6.13467 12.5643 6.077 12.385 6.077H3.615C3.43567 6.077 3.28833 6.13467 3.173 6.25C3.05767 6.36533 3 6.51267 3 6.692V10.846ZM1 17H15V12.462C15 12.282 14.9423 12.1343 14.827 12.019C14.7117 11.9037 14.5643 11.846 14.385 11.846H1.615C1.43567 11.846 1.28833 11.9037 1.173 12.019C1.05767 12.1343 1 12.282 1 12.462V17Z" fill="black"/>
</svg>
