<svg width="44" height="44" viewBox="0 0 44 44" fill="none" xmlns="http://www.w3.org/2000/svg">
<path d="M9.97335 14.5933L10.9267 13.6216C11.99 12.5583 13.75 12.5583 14.85 13.695L14.8867 13.75C15.785 14.6666 16.9767 15.1066 18.2783 15.235C20.0567 15.4 21.78 16.3533 22.9167 18.0766C24.1633 20.0566 24.145 22.6966 22.8433 24.6583C22.3524 25.4347 21.6922 26.0899 20.9121 26.575C20.1321 27.0601 19.2524 27.3625 18.3389 27.4595C17.4255 27.5565 16.5019 27.4456 15.6374 27.1351C14.7728 26.8246 13.9897 26.3226 13.3467 25.6666C12.32 24.6583 11.7333 23.3566 11.5867 22C11.44 20.6616 10.9083 19.3966 9.97335 18.4616C8.91001 17.4166 8.91001 15.6566 9.97335 14.5933ZM17.6733 29.3333C15.5283 29.3333 13.53 28.5083 12.045 26.9866C10.7617 25.6666 9.95501 24.0166 9.75335 22.22C9.69835 21.67 9.53335 20.955 9.09335 20.295C7.99335 21.8166 7.33335 23.65 7.33335 25.6666C7.33335 28.6733 8.80001 31.3316 11.055 33H34.8333V31.1666C34.8333 24.5666 30.4517 18.975 24.4567 17.1416C26.0883 19.7083 26.0517 23.1366 24.3833 25.6666C22.9167 27.9583 20.3867 29.3333 17.6733 29.3333ZM27.0967 13.86H29.425C31.02 13.86 32.4133 14.9783 32.4133 16.9766V18.3333H34.705V16.5C34.705 13.75 32.2667 11.66 29.425 11.66H27.0967C25.575 11.66 24.2733 10.1566 24.2733 8.61663C24.2733 7.07663 25.575 5.93996 27.0967 5.93996V3.66663C24.2733 3.66663 22 5.93996 22 8.76329C22 11.5866 24.2733 13.86 27.0967 13.86ZM8.25001 13.8416C8.36001 13.6583 8.50668 13.475 8.67168 13.2916L9.62501 12.3383C9.79001 12.1733 9.97335 12.045 10.1567 11.9166L7.57168 9.29496C7.82835 8.79996 7.73668 8.15829 7.33335 7.73663C7.07081 7.48107 6.7189 7.33807 6.35251 7.33807C5.98613 7.33807 5.63422 7.48107 5.37168 7.73663C5.11501 7.99329 4.98668 8.30496 4.96835 8.63496C4.63835 8.65329 4.32668 8.78163 4.07001 9.03829C3.53835 9.56996 3.53835 10.45 4.07001 11C4.49168 11.4033 5.11501 11.495 5.62835 11.2383L8.25001 13.8416ZM33.715 8.04829C34.65 7.11329 35.2367 5.84829 35.2367 4.43663H32.945C32.945 5.95829 31.6617 7.24163 30.14 7.24163V9.51496C33.55 9.51496 36.2267 12.3016 36.2267 15.7116V20.1666H38.5V15.7116C38.5092 14.1124 38.0644 12.5434 37.2174 11.1869C36.3704 9.83043 35.1559 8.74207 33.715 8.04829ZM9.16668 38.5H34.8333C36.8683 38.5 38.5 36.8683 38.5 34.8333H5.50001C5.50001 35.8058 5.88632 36.7384 6.57396 37.426C7.26159 38.1136 8.19422 38.5 9.16668 38.5Z" fill="black"/>
</svg>
