<svg width="17" height="12" viewBox="0 0 17 12" fill="none" xmlns="http://www.w3.org/2000/svg">
<path d="M8.25 3.375C8.84674 3.375 9.41903 3.61205 9.84099 4.03401C10.2629 4.45597 10.5 5.02826 10.5 5.625C10.5 6.22174 10.2629 6.79403 9.84099 7.21599C9.41903 7.63795 8.84674 7.875 8.25 7.875C7.65326 7.875 7.08097 7.63795 6.65901 7.21599C6.23705 6.79403 6 6.22174 6 5.625C6 5.02826 6.23705 4.45597 6.65901 4.03401C7.08097 3.61205 7.65326 3.375 8.25 3.375ZM8.25 0C12 0 15.2025 2.3325 16.5 5.625C15.2025 8.9175 12 11.25 8.25 11.25C4.5 11.25 1.2975 8.9175 0 5.625C1.2975 2.3325 4.5 0 8.25 0ZM1.635 5.625C2.24119 6.86273 3.18248 7.90556 4.35186 8.63494C5.52124 9.36432 6.8718 9.75099 8.25 9.75099C9.6282 9.75099 10.9788 9.36432 12.1481 8.63494C13.3175 7.90556 14.2588 6.86273 14.865 5.625C14.2588 4.38727 13.3175 3.34444 12.1481 2.61506C10.9788 1.88568 9.6282 1.49901 8.25 1.49901C6.8718 1.49901 5.52124 1.88568 4.35186 2.61506C3.18248 3.34444 2.24119 4.38727 1.635 5.625Z" fill="black"/>
</svg>
