<svg width="36" height="36" viewBox="0 0 36 36" fill="none" xmlns="http://www.w3.org/2000/svg">
<path d="M23.097 6.615C23.9104 6.07135 24.8562 5.75883 25.8334 5.7108C26.8105 5.66278 27.7824 5.88106 28.6452 6.34233C29.508 6.8036 30.2293 7.49055 30.7321 8.32981C31.2349 9.16908 31.5003 10.1291 31.5 11.1075C31.5008 12.4818 30.9776 13.8046 30.0369 14.8066C29.0963 15.8085 27.8091 16.4141 26.4375 16.5H25.5M23.097 6.615C22.7258 5.55952 22.0361 4.6453 21.1231 3.99856C20.2101 3.35183 19.1189 3.00449 18 3.00449C16.8811 3.00449 15.7899 3.35183 14.8769 3.99856C13.9639 4.6453 13.2742 5.55952 12.903 6.615M23.097 6.615C23.4517 7.62513 23.4982 8.71791 23.2305 9.7545M12.903 6.615C13.5908 7.07534 14.1635 7.68761 14.577 8.4045M12.903 6.615C12.0896 6.07135 11.1438 5.75883 10.1666 5.7108C9.18947 5.66278 8.2176 5.88106 7.35481 6.34233C6.49202 6.8036 5.77071 7.49055 5.26791 8.32981C4.76511 9.16908 4.49969 10.1291 4.5 11.1075C4.49922 12.4818 5.02244 13.8046 5.96306 14.8066C6.90368 15.8085 8.19091 16.4141 9.5625 16.5H10.5" stroke="black" stroke-width="1.5" stroke-linecap="round" stroke-linejoin="round"/>
<path d="M25.5 21V15M10.5 21V15M27 21.75C24.6015 20.817 21.45 20.25 18 20.25C14.55 20.25 11.4 20.817 9 21.75M25.5 25.5C25.5 27.4891 24.7098 29.3968 23.3033 30.8033C21.8968 32.2098 19.9891 33 18 33C16.0109 33 14.1032 32.2098 12.6967 30.8033C11.2902 29.3968 10.5 27.4891 10.5 25.5" stroke="black" stroke-width="1.5" stroke-linecap="round"/>
</svg>
