<svg width="44" height="44" viewBox="0 0 44 44" fill="none" xmlns="http://www.w3.org/2000/svg">
<path d="M9.29502 36.6667H20.7809L22.0844 31.5883H7.98969L9.29502 36.6667ZM7.26369 22.9167H5.43035V19.3563H7.26369V22.9167ZM17.4332 18.7312L14.8775 16.2103L16.1755 14.9123L18.6964 17.4332L17.4332 18.7312ZM6.34519 14.278H5.42852V12.4447H6.34519C8.03796 12.4447 9.46613 11.8629 10.6297 10.6993C11.7932 9.53578 12.375 8.10822 12.375 6.41667V5.5H14.2084V6.41667C14.2084 8.59222 13.442 10.4463 11.9094 11.979C10.3742 13.5129 8.51891 14.2798 6.34335 14.2798M22.9167 7.33333H19.3564V5.5H22.9167V7.33333ZM3.66669 38.5V36.6667H7.40485L5.64119 29.755H24.4329L22.671 36.6667H35.2147L36.5219 21.1897H24.8967L25.2524 25.3843H23.408L22.8837 19.3563H38.5L37.0572 36.6667H40.3334V38.5H3.66669Z" fill="black"/>
</svg>
