<svg width="24" height="24" viewBox="0 0 24 24" fill="none" xmlns="http://www.w3.org/2000/svg">
<path d="M9.616 13.442H10.616V9.616H9.616V13.442ZM5.827 12.327C5.137 11.9823 4.577 11.489 4.147 10.847C3.71567 10.2057 3.5 9.49833 3.5 8.725C3.5 7.693 3.862 6.81433 4.586 6.089C5.30867 5.363 6.18633 5 7.219 5C7.41567 5 7.61667 5.01667 7.822 5.05C8.02733 5.08333 8.22833 5.125 8.425 5.175L8.598 5.214L8.694 5.059C9.05933 4.453 9.52733 3.95833 10.098 3.575C10.6687 3.19167 11.3027 3 12 3C12.6973 3 13.3313 3.19167 13.902 3.575C14.4727 3.95833 14.947 4.453 15.325 5.059L15.421 5.213L15.575 5.175C15.7657 5.125 15.9563 5.08333 16.147 5.05C16.3377 5.01667 16.536 5 16.742 5C17.7873 5 18.675 5.36267 19.405 6.088C20.135 6.81333 20.5 7.69867 20.5 8.744C20.5 9.51733 20.2877 10.2217 19.863 10.857C19.439 11.4923 18.8757 11.981 18.173 12.323V17.231H5.827V12.327ZM13.404 13.442H14.404V9.616H13.404V13.442ZM6.827 16.231H17.173V11.679L17.985 11.283C18.4563 11.0537 18.8297 10.7143 19.105 10.265C19.3803 9.81567 19.5183 9.32167 19.519 8.783C19.519 8.00367 19.243 7.345 18.691 6.807C18.139 6.269 17.4767 6 16.704 6C16.5333 6 16.37 6.01333 16.214 6.04C16.0573 6.06667 15.902 6.10533 15.748 6.156L14.958 6.384L14.471 5.565C14.199 5.105 13.85 4.729 13.424 4.437C12.998 4.145 12.5267 3.99933 12.01 4C11.4933 4.00067 11.0217 4.14667 10.595 4.438C10.1683 4.72933 9.81933 5.10533 9.548 5.566L9.061 6.385L8.246 6.155C8.09267 6.10967 7.93667 6.07233 7.778 6.043C7.61933 6.01367 7.45667 5.99933 7.29 6C6.51667 6 5.85833 6.26767 5.315 6.803C4.77167 7.33833 4.5 7.99333 4.5 8.768C4.5 9.30333 4.637 9.79433 4.911 10.241C5.185 10.6877 5.55967 11.035 6.035 11.283L6.827 11.679V16.231ZM5.827 17.231H6.827V20H17.173V17.23H18.173V21H5.827V17.231Z" fill="black"/>
</svg>
