<svg width="22" height="22" viewBox="0 0 22 22" fill="none" xmlns="http://www.w3.org/2000/svg">
<path d="M2.75 12.75H20.75M3.75 20.75L4.68 19.82C5.21 19.29 5.474 19.026 5.807 18.876C6.14 18.726 6.513 18.702 7.259 18.656L10.512 18.452C12.11 18.352 12.91 18.302 13.613 17.965C14.316 17.627 14.855 17.035 15.933 15.849L18.75 12.75H15.25L13.457 14.543C13.337 14.663 13.278 14.722 13.217 14.774C12.8979 15.0455 12.5016 15.2099 12.084 15.244C12.003 15.25 11.919 15.25 11.75 15.25M11.75 15.25C11.75 14.785 11.75 14.553 11.712 14.36C11.6349 13.9718 11.4444 13.6153 11.1645 13.3355C10.8847 13.0556 10.5282 12.8651 10.14 12.788C9.947 12.75 9.715 12.75 9.25 12.75H8.468C7.423 12.75 6.9 12.75 6.411 12.876C6.04615 12.9697 5.69636 13.1145 5.372 13.306C4.936 13.564 4.567 13.933 3.828 14.672L0.75 17.75M11.75 15.25H8.25M3.75 10.25C3.75 8.12827 4.59285 6.09344 6.09315 4.59315C7.59344 3.09285 9.62827 2.25 11.75 2.25M11.75 2.25C13.8717 2.25 15.9066 3.09285 17.4069 4.59315C18.9071 6.09344 19.75 8.12827 19.75 10.25M11.75 2.25V0.75" stroke="black" stroke-width="1.5" stroke-linecap="round" stroke-linejoin="round"/>
</svg>
