<svg width="44" height="44" viewBox="0 0 44 44" fill="none" xmlns="http://www.w3.org/2000/svg">
<path d="M38.5 31.1667C36.0689 31.1667 33.7373 30.2009 32.0182 28.4819C30.2991 26.7628 29.3334 24.4312 29.3334 22C29.3334 19.5689 30.2991 17.2373 32.0182 15.5182C33.7373 13.7991 36.0689 12.8334 38.5 12.8334" stroke="black" stroke-width="1.5" stroke-linecap="round"/>
<path d="M38.5 38.5C36.3332 38.5 34.1876 38.0732 32.1857 37.244C30.1839 36.4148 28.3649 35.1994 26.8327 33.6673C25.3006 32.1351 24.0852 30.3161 23.256 28.3143C22.4268 26.3124 22 24.1668 22 22C22 19.8332 22.4268 17.6876 23.256 15.6857C24.0852 13.6839 25.3006 11.8649 26.8327 10.3327C28.3649 8.80057 30.1839 7.58519 32.1857 6.75599C34.1876 5.92678 36.3332 5.5 38.5 5.5" stroke="black" stroke-width="1.5" stroke-linecap="round"/>
<path d="M11 5.5V14.6667M11 38.5V20.1667M6.41667 14.6667H15.5833M16.5 5.5V13.4787C16.5 22.396 5.5 22.396 5.5 13.4787V5.5" stroke="black" stroke-width="1.5" stroke-linecap="round" stroke-linejoin="round"/>
</svg>
