<svg width="22" height="18" viewBox="0 0 22 18" fill="none" xmlns="http://www.w3.org/2000/svg">
<path d="M1.37 8.22219L9.742 1.44519C10.098 1.15715 10.5421 1 11 1C11.4579 1 11.902 1.15715 12.258 1.44519L20.629 8.22219M20 11.9992C20.2652 11.9992 20.5196 12.1045 20.7071 12.2921C20.8946 12.4796 21 12.734 21 12.9992V14.9992C21 15.2644 20.8946 15.5188 20.7071 15.7063C20.5196 15.8938 20.2652 15.9992 20 15.9992H14.75M2 11.9992C1.73478 11.9992 1.48043 12.1045 1.29289 12.2921C1.10536 12.4796 1 12.734 1 12.9992V14.9992C1 15.2644 1.10536 15.5188 1.29289 15.7063C1.48043 15.8938 1.73478 15.9992 2 15.9992H11" stroke="black" stroke-width="2" stroke-linecap="round" stroke-linejoin="round"/>
<path d="M5.67004 11.9991L11.8 16.5991C12.0102 16.7567 12.2493 16.8714 12.5037 16.9366C12.7581 17.0018 13.0229 17.0162 13.2829 16.979C13.5429 16.9419 13.793 16.8539 14.019 16.7201C14.245 16.5863 14.4425 16.4093 14.6 16.1991L17.75 11.9991" stroke="black" stroke-width="2" stroke-linecap="round" stroke-linejoin="round"/>
<path d="M20 7.99915H2C1.44772 7.99915 1 8.44686 1 8.99915V10.9991C1 11.5514 1.44772 11.9991 2 11.9991H20C20.5523 11.9991 21 11.5514 21 10.9991V8.99915C21 8.44686 20.5523 7.99915 20 7.99915Z" stroke="black" stroke-width="2" stroke-linecap="round" stroke-linejoin="round"/>
</svg>
