<svg width="24" height="24" viewBox="0 0 24 24" fill="none" xmlns="http://www.w3.org/2000/svg">
<path d="M7.376 20.013C7.29077 19.9636 7.19665 19.9315 7.09901 19.9185C7.00138 19.9055 6.90214 19.9119 6.80696 19.9372C6.71178 19.9626 6.62252 20.0064 6.54429 20.0663C6.46605 20.1261 6.40037 20.2008 6.351 20.286C6.30162 20.3712 6.26951 20.4653 6.25651 20.563C6.24351 20.6606 6.24986 20.7599 6.27521 20.855C6.30056 20.9502 6.34441 21.0395 6.40426 21.1177C6.4641 21.1959 6.53877 21.2616 6.624 21.311L7.376 20.013ZM2.689 17.375C2.73632 17.4639 2.80104 17.5423 2.87932 17.6056C2.9576 17.6689 3.04782 17.7158 3.14461 17.7435C3.2414 17.7712 3.34278 17.7792 3.4427 17.7668C3.54262 17.7545 3.63904 17.7222 3.72621 17.6719C3.81338 17.6215 3.88952 17.5541 3.95009 17.4737C4.01065 17.3933 4.05441 17.3015 4.07874 17.2038C4.10308 17.1061 4.1075 17.0045 4.09174 16.9051C4.07597 16.8056 4.04035 16.7104 3.987 16.625L2.689 17.375ZM21.25 12C21.25 14.4533 20.2754 16.806 18.5407 18.5407C16.806 20.2754 14.4532 21.25 12 21.25V22.75C17.937 22.75 22.75 17.937 22.75 12H21.25ZM2.75 12C2.75 9.54675 3.72455 7.19397 5.45926 5.45926C7.19397 3.72455 9.54674 2.75 12 2.75V1.25C6.063 1.25 1.25 6.063 1.25 12H2.75ZM15.5 14.25C13.975 14.25 12.5125 13.6442 11.4341 12.5659C10.3558 11.4875 9.75 10.025 9.75 8.5H8.25C8.25 10.4228 9.01383 12.2669 10.3735 13.6265C11.7331 14.9862 13.5772 15.75 15.5 15.75V14.25ZM20.425 11.469C19.9133 12.3176 19.191 13.0197 18.3281 13.5069C17.4652 13.9942 16.491 14.2501 15.5 14.25V15.75C16.7494 15.7504 17.9777 15.4279 19.0657 14.8138C20.1537 14.1997 21.0646 13.3148 21.71 12.245L20.425 11.469ZM9.75 8.5C9.74986 7.50903 10.0058 6.53483 10.4931 5.67193C10.9803 4.80902 11.6823 4.08669 12.531 3.575L11.755 2.291C10.6853 2.93628 9.80058 3.84701 9.18648 4.93486C8.57239 6.02271 8.2498 7.25078 8.25 8.5H9.75ZM12 2.75C11.9497 2.74903 11.9002 2.73811 11.8542 2.71785C11.8082 2.6976 11.7666 2.66842 11.732 2.632C11.6898 2.58965 11.6613 2.53568 11.65 2.477C11.646 2.446 11.648 2.356 11.755 2.291L12.531 3.575C13.034 3.271 13.196 2.714 13.137 2.276C13.075 1.821 12.717 1.25 12 1.25V2.75ZM21.71 12.245C21.644 12.352 21.554 12.354 21.523 12.35C21.4643 12.3387 21.4103 12.3102 21.368 12.268C21.3316 12.2334 21.3024 12.1918 21.2821 12.1458C21.2619 12.0998 21.251 12.0503 21.25 12H22.75C22.75 11.283 22.179 10.925 21.724 10.863C21.286 10.804 20.729 10.966 20.425 11.469L21.71 12.245ZM12 21.25C10.3765 21.2529 8.78119 20.8261 7.376 20.013L6.624 21.311C8.2577 22.2565 10.1124 22.7529 12 22.75V21.25ZM3.987 16.625C3.17373 15.2195 2.74694 13.6238 2.75 12H1.25C1.24726 13.8872 1.74371 15.7416 2.689 17.375L3.987 16.625Z" fill="black"/>
</svg>
